<svg preserveAspectRatio="none" overflow="visible" style="display: block;" width="17.5" height="16.6111" viewBox="0 0 17.5 16.6111" fill="none" xmlns="http://www.w3.org/2000/svg">
<g id="Group">
<path id="Vector" d="M0.75 0.75V15.8611H16.75V0.75H0.75Z" stroke="currentColor" stroke-width="1.5" stroke-linecap="round" stroke-linejoin="round"/>
<path id="Vector_2" d="M8.75 0.75V6.08333" stroke="currentColor" stroke-width="1.5" stroke-linecap="round" stroke-linejoin="round"/>
<path id="Vector_3" d="M6.08333 8.75L8.75 6.08333L11.4167 8.75" stroke="currentColor" stroke-width="1.5" stroke-linecap="round" stroke-linejoin="round"/>
<path id="Vector_4" d="M3.93737 14.4515C3.60397 14.1181 3.41667 13.6659 3.41667 13.1944C3.41667 12.7229 3.60397 12.2708 3.93737 11.9374C4.27076 11.604 4.72295 11.4167 5.19444 11.4167C5.66594 11.4167 6.11812 11.604 6.45152 11.9374C6.78492 12.2708 6.97222 12.7229 6.97222 13.1944C6.97222 13.6659 6.78492 14.1181 6.45152 14.4515C6.11812 14.7849 5.66594 14.9722 5.19444 14.9722C4.72295 14.9722 4.27076 14.7849 3.93737 14.4515Z" stroke="currentColor" stroke-width="1.5" stroke-linecap="round" stroke-linejoin="round"/>
<path id="Vector_5" d="M10.5278 13.1944C10.5278 13.6659 10.7151 14.1181 11.0485 14.4515C11.3819 14.7849 11.8341 14.9722 12.3056 14.9722C12.7771 14.9722 13.2292 14.7849 13.5626 14.4515C13.896 14.1181 14.0833 13.6659 14.0833 13.1944C14.0833 12.7229 13.896 12.2708 13.5626 11.9374C13.2292 11.604 12.7771 11.4167 12.3056 11.4167C11.8341 11.4167 11.3819 11.604 11.0485 11.9374C10.7151 12.2708 10.5278 12.7229 10.5278 13.1944Z" stroke="currentColor" stroke-width="1.5" stroke-linecap="round" stroke-linejoin="round"/>
</g>
</svg>
