<svg preserveAspectRatio="none" overflow="visible" style="display: block;" width="19.5" height="19.5" viewBox="0 0 19.5 19.5" fill="none" xmlns="http://www.w3.org/2000/svg">
<g id="Group">
<path id="Vector" d="M14.9285 14.9285L18.75 18.75M9.05769 17.3654C10.1487 17.3654 11.229 17.1505 12.2369 16.733C13.2448 16.3155 14.1607 15.7036 14.9321 14.9321C15.7036 14.1607 16.3155 13.2448 16.733 12.2369C17.1505 11.229 17.3654 10.1487 17.3654 9.05769C17.3654 7.96671 17.1505 6.88641 16.733 5.87848C16.3155 4.87054 15.7036 3.95471 14.9321 3.18327C14.1607 2.41183 13.2448 1.79989 12.2369 1.38239C11.229 0.964885 10.1487 0.75 9.05769 0.75C6.85436 0.75 4.74126 1.62527 3.18327 3.18327C1.62527 4.74126 0.75 6.85436 0.75 9.05769C0.75 11.261 1.62527 13.3741 3.18327 14.9321C4.74126 16.4901 6.85436 17.3654 9.05769 17.3654Z" stroke="currentColor" stroke-width="1.5" stroke-linecap="round" stroke-linejoin="round"/>
<path id="Vector_2" d="M4.83466 8.60354C4.32512 8.69215 4.32512 9.42323 4.83466 9.51185C5.73686 9.66925 6.57174 10.0904 7.23287 10.7241C7.894 11.3579 8.35142 12.1742 8.54681 13.0689L8.57727 13.2074C8.68804 13.71 9.40389 13.7142 9.51881 13.2115L9.55619 13.0482C9.76019 12.1579 10.2225 11.3477 10.885 10.7191C11.5476 10.0905 12.3811 9.67148 13.2808 9.51462C13.7931 9.42462 13.7931 8.69077 13.2808 8.60077C12.3808 8.44415 11.5471 8.02526 10.8842 7.39664C10.2214 6.76803 9.7589 5.95767 9.55481 5.06723L9.51742 4.90385C9.4025 4.40123 8.68666 4.404 8.57589 4.908L8.54543 5.04785C8.34964 5.94189 7.89221 6.75744 7.23139 7.39065C6.57056 8.02386 5.73624 8.44608 4.83466 8.60354Z" stroke="currentColor" stroke-width="1.5" stroke-linecap="round" stroke-linejoin="round"/>
</g>
</svg>
