<svg preserveAspectRatio="none" overflow="visible" style="display: block;" width="19.5" height="19.5" viewBox="0 0 19.5 19.5" fill="none" xmlns="http://www.w3.org/2000/svg">
<g id="Group">
<path id="Vector" d="M9.75002 18.75C14.7207 18.75 18.75 14.7207 18.75 9.75C18.75 4.7793 14.7207 0.75 9.75002 0.75C4.77932 0.75 0.750017 4.7793 0.750017 9.75C0.750017 10.9911 1.00202 12.1737 1.45562 13.2492C1.70672 13.8432 1.83182 14.1402 1.84802 14.3652C1.86332 14.5902 1.79672 14.8368 1.66442 15.3309L0.750017 18.75L4.16912 17.8356C4.66322 17.7033 4.90982 17.6376 5.13482 17.652C5.35982 17.6682 5.65682 17.7933 6.25082 18.0444C7.35841 18.5109 8.54821 18.7508 9.75002 18.75Z" stroke="currentColor" stroke-width="1.5" stroke-linejoin="round"/>
<path id="Vector_2" d="M6.67911 10.0893L7.46301 9.1164C7.79331 8.706 8.20101 8.3244 8.23431 7.7772C8.24151 7.6395 8.14431 7.0203 7.95081 5.781C7.87431 5.2941 7.41891 5.25 7.02561 5.25C6.51261 5.25 6.25611 5.25 6.00141 5.367C5.67921 5.5137 5.34891 5.9268 5.27601 6.2733C5.21841 6.5478 5.26161 6.7368 5.34711 7.1148C5.70891 8.7195 6.55941 10.3044 7.87701 11.6229C9.19551 12.9405 10.7804 13.791 12.386 14.1528C12.764 14.2383 12.9521 14.2815 13.2266 14.2239C13.5731 14.1519 13.9862 13.8207 14.1338 13.4985C14.2499 13.2438 14.2499 12.9873 14.2499 12.4743C14.2499 12.0801 14.2058 11.6256 13.7189 11.5491C12.4796 11.3547 11.8604 11.2584 11.7227 11.2656C11.1764 11.298 10.7939 11.7066 10.3835 12.0369L9.41061 12.8199" stroke="currentColor" stroke-width="1.5"/>
</g>
</svg>
